<svg width="26" height="26" viewBox="0 0 26 26" fill="none" xmlns="http://www.w3.org/2000/svg">
<path d="M13 4V1M13 4C12.2043 4 11.4413 4.31607 10.8787 4.87868C10.3161 5.44129 10 6.20435 10 7C10 7.79565 10.3161 8.55871 10.8787 9.12132C11.4413 9.68393 12.2043 10 13 10M13 4C13.7956 4 14.5587 4.31607 15.1213 4.87868C15.6839 5.44129 16 6.20435 16 7C16 7.79565 15.6839 8.55871 15.1213 9.12132C14.5587 9.68393 13.7956 10 13 10M4 22C4.79565 22 5.55871 21.6839 6.12132 21.1213C6.68393 20.5587 7 19.7956 7 19C7 18.2043 6.68393 17.4413 6.12132 16.8787C5.55871 16.3161 4.79565 16 4 16M4 22C3.20435 22 2.44129 21.6839 1.87868 21.1213C1.31607 20.5587 1 19.7956 1 19C1 18.2043 1.31607 17.4413 1.87868 16.8787C2.44129 16.3161 3.20435 16 4 16M4 22V25M4 16V1M13 10V25M22 22C22.7956 22 23.5587 21.6839 24.1213 21.1213C24.6839 20.5587 25 19.7956 25 19C25 18.2043 24.6839 17.4413 24.1213 16.8787C23.5587 16.3161 22.7956 16 22 16M22 22C21.2043 22 20.4413 21.6839 19.8787 21.1213C19.3161 20.5587 19 19.7956 19 19C19 18.2043 19.3161 17.4413 19.8787 16.8787C20.4413 16.3161 21.2043 16 22 16M22 22V25M22 16V1" stroke="#6549F6" stroke-width="2" stroke-linecap="round" stroke-linejoin="round"/>
</svg>
