<svg width="27" height="28" viewBox="0 0 27 28" fill="none" xmlns="http://www.w3.org/2000/svg">
<g clip-path="url(#clip0_2_1104)">
<path d="M22 23L16 17M18 12C18 12.9193 17.8189 13.8295 17.4672 14.6788C17.1154 15.5281 16.5998 16.2997 15.9497 16.9497C15.2997 17.5998 14.5281 18.1154 13.6788 18.4672C12.8295 18.8189 11.9193 19 11 19C10.0807 19 9.1705 18.8189 8.32122 18.4672C7.47194 18.1154 6.70026 17.5998 6.05025 16.9497C5.40024 16.2997 4.88463 15.5281 4.53284 14.6788C4.18106 13.8295 4 12.9193 4 12C4 10.1435 4.7375 8.36301 6.05025 7.05025C7.36301 5.7375 9.14348 5 11 5C12.8565 5 14.637 5.7375 15.9497 7.05025C17.2625 8.36301 18 10.1435 18 12Z" stroke="black" stroke-width="2" stroke-linecap="round" stroke-linejoin="round"/>
</g>
<defs>
<clipPath id="clip0_2_1104">
<rect width="27" height="27" fill="white" transform="translate(0 0.421875)"/>
</clipPath>
</defs>
</svg>
