<svg width="117" height="17" viewBox="0 0 117 17" fill="none" xmlns="http://www.w3.org/2000/svg">
<path d="M0.120008 0.599999L7.64401 16H12.352L19.898 0.599999H15.102L10.042 11.688L4.96001 0.599999H0.120008ZM29.9199 16.506C36.0139 16.506 39.9739 13.514 39.9739 8.3C39.9739 3.086 36.0139 0.0939989 29.9199 0.0939989C23.8259 0.0939989 19.8879 3.086 19.8879 8.3C19.8879 13.514 23.8259 16.506 29.9199 16.506ZM29.9199 12.854C26.5319 12.854 24.4419 11.204 24.4419 8.3C24.4419 5.396 26.5539 3.746 29.9199 3.746C33.3079 3.746 35.3979 5.396 35.3979 8.3C35.3979 11.204 33.3079 12.854 29.9199 12.854ZM51.8554 16.506C57.9494 16.506 61.9094 13.514 61.9094 8.3C61.9094 3.086 57.9494 0.0939989 51.8554 0.0939989C45.7614 0.0939989 41.8234 3.086 41.8234 8.3C41.8234 13.514 45.7614 16.506 51.8554 16.506ZM51.8554 12.854C48.4674 12.854 46.3774 11.204 46.3774 8.3C46.3774 5.396 48.4894 3.746 51.8554 3.746C55.2434 3.746 57.3334 5.396 57.3334 8.3C57.3334 11.204 55.2434 12.854 51.8554 12.854ZM81.161 0.599999L75.331 7.992L69.545 0.599999H64.639V16H68.973V6.166L75.111 13.69H75.331L81.469 6.166V16H85.935V0.599999H81.161ZM94.0274 16V0.599999H89.5394V16H94.0274ZM106.812 16.506C112.906 16.506 116.866 13.514 116.866 8.3C116.866 3.086 112.906 0.0939989 106.812 0.0939989C100.718 0.0939989 96.7804 3.086 96.7804 8.3C96.7804 13.514 100.718 16.506 106.812 16.506ZM106.812 12.854C103.424 12.854 101.334 11.204 101.334 8.3C101.334 5.396 103.446 3.746 106.812 3.746C110.2 3.746 112.29 5.396 112.29 8.3C112.29 11.204 110.2 12.854 106.812 12.854Z" fill="white"/>
</svg>
