<svg width="51" height="55" viewBox="0 0 51 55" fill="none" xmlns="http://www.w3.org/2000/svg">
<path fill-rule="evenodd" clip-rule="evenodd" d="M35.5909 28.0019C35.7556 28.1615 35.8862 28.3512 35.9753 28.56C36.0644 28.7688 36.1103 28.9927 36.1103 29.2188C36.1103 29.4448 36.0644 29.6687 35.9753 29.8775C35.8862 30.0863 35.7556 30.276 35.5909 30.4356L24.9838 40.7481C24.8196 40.9082 24.6245 41.0352 24.4097 41.1218C24.1949 41.2085 23.9647 41.2531 23.7321 41.2531C23.4996 41.2531 23.2693 41.2085 23.0546 41.1218C22.8398 41.0352 22.6447 40.9082 22.4805 40.7481L17.1769 35.5919C17.0126 35.4321 16.8822 35.2424 16.7932 35.0336C16.7043 34.8248 16.6585 34.601 16.6585 34.375C16.6585 34.149 16.7043 33.9252 16.7932 33.7164C16.8822 33.5076 17.0126 33.3179 17.1769 33.1581C17.5089 32.8354 17.9591 32.6541 18.4286 32.6541C18.661 32.6541 18.8912 32.6986 19.1059 32.7851C19.3207 32.8716 19.5158 32.9983 19.6802 33.1581L23.7321 37.1009L33.0876 28.0019C33.2518 27.8418 33.4469 27.7148 33.6617 27.6282C33.8765 27.5415 34.1067 27.4969 34.3393 27.4969C34.5718 27.4969 34.8021 27.5415 35.0168 27.6282C35.2316 27.7148 35.4267 27.8418 35.5909 28.0019Z" fill="url(#paint0_linear_2_1635)"/>
<path d="M25.5 3.4375C27.8443 3.4375 30.0926 4.34291 31.7503 5.95455C33.408 7.56619 34.3393 9.75205 34.3393 12.0312V13.75H16.6607V12.0312C16.6607 9.75205 17.592 7.56619 19.2497 5.95455C20.9074 4.34291 23.1557 3.4375 25.5 3.4375ZM37.875 13.75V12.0312C37.875 8.84036 36.5712 5.78017 34.2504 3.52387C31.9297 1.26757 28.782 0 25.5 0C22.2179 0 19.0703 1.26757 16.7495 3.52387C14.4288 5.78017 13.125 8.84036 13.125 12.0312V13.75H0.75V48.125C0.75 49.9484 1.49502 51.697 2.82117 52.9864C4.14732 54.2757 5.94597 55 7.82143 55H43.1786C45.054 55 46.8527 54.2757 48.1788 52.9864C49.505 51.697 50.25 49.9484 50.25 48.125V13.75H37.875ZM4.28571 17.1875H46.7143V48.125C46.7143 49.0367 46.3418 49.911 45.6787 50.5557C45.0156 51.2003 44.1163 51.5625 43.1786 51.5625H7.82143C6.8837 51.5625 5.98437 51.2003 5.3213 50.5557C4.65822 49.911 4.28571 49.0367 4.28571 48.125V17.1875Z" fill="url(#paint1_linear_2_1635)"/>
<defs>
<linearGradient id="paint0_linear_2_1635" x1="0.75" y1="0" x2="57.0075" y2="3.26628" gradientUnits="userSpaceOnUse">
<stop stop-color="#7B61FF"/>
<stop offset="1" stop-color="#00DAD9"/>
</linearGradient>
<linearGradient id="paint1_linear_2_1635" x1="0.75" y1="0" x2="57.0075" y2="3.26628" gradientUnits="userSpaceOnUse">
<stop stop-color="#7B61FF"/>
<stop offset="1" stop-color="#00DAD9"/>
</linearGradient>
</defs>
</svg>
