<svg width="55" height="55" viewBox="0 0 55 55" fill="none" xmlns="http://www.w3.org/2000/svg">
<path d="M46.4065 17.1881C48.5877 17.1887 50.6871 18.0186 52.279 19.5097C53.8709 21.0008 54.8363 23.0415 54.9794 25.218L55 25.7817V46.4064C54.9995 48.5876 54.1695 50.687 52.6784 52.279C51.1874 53.8709 49.1467 54.8363 46.9702 54.9794L46.4065 55H25.7821C23.6003 55.0003 21.5001 54.1708 19.9074 52.6796C18.3147 51.1884 17.3489 49.1472 17.2057 46.9701L17.1886 46.4064V25.7817C17.1882 23.5999 18.0178 21.4997 19.5089 19.907C21.0001 18.3143 23.0412 17.3484 25.2183 17.2053L25.7821 17.1881H46.4065ZM46.4065 20.6256H25.7821C24.5003 20.6256 23.2645 21.1031 22.3157 21.9649C21.3669 22.8266 20.7731 24.0109 20.65 25.2867L20.626 25.7817V46.4064C20.626 47.6882 21.1035 48.9239 21.9652 49.8728C22.827 50.8216 24.0113 51.4154 25.2871 51.5385L25.7821 51.5626H46.4065C47.6882 51.5625 48.924 51.085 49.8728 50.2233C50.8217 49.3615 51.4155 48.1772 51.5385 46.9014L51.5626 46.4064V25.7817C51.5625 24.5 51.0851 23.2642 50.2233 22.3153C49.3616 21.3665 48.1773 20.7727 46.9015 20.6496L46.4065 20.6256ZM36.0943 24.063C36.4965 24.0629 36.8861 24.2038 37.1951 24.4614C37.5042 24.7189 37.7131 25.0767 37.7855 25.4724L37.813 25.7817L37.8095 34.3753H46.4065C46.836 34.3745 47.2502 34.5346 47.5676 34.8239C47.885 35.1133 48.0825 35.511 48.1213 35.9388C48.1601 36.3665 48.0374 36.7933 47.7773 37.135C47.5171 37.4768 47.1385 37.7088 46.7159 37.7853L46.4065 37.8128H37.813V46.4064C37.8138 46.8359 37.6537 47.2501 37.3644 47.5675C37.075 47.8849 36.6773 48.0824 36.2496 48.1212C35.8218 48.1601 35.3951 48.0373 35.0533 47.7772C34.7116 47.517 34.4796 47.1384 34.4031 46.7158L34.3756 46.4064L34.3721 37.8128H25.7821C25.3526 37.8136 24.9384 37.6535 24.621 37.3642C24.3036 37.0748 24.106 36.6771 24.0672 36.2494C24.0284 35.8216 24.1512 35.3948 24.4113 35.0531C24.6714 34.7113 25.0501 34.4794 25.4727 34.4028L25.7821 34.3753H34.3756V25.7817C34.3756 25.3259 34.5567 24.8887 34.879 24.5664C35.2013 24.2441 35.6385 24.063 36.0943 24.063ZM36.6511 5.82736L36.8161 6.37048L38.7926 13.7507H35.2315L33.4956 7.25734C33.1637 6.01952 32.3827 4.94967 31.3049 4.25634C30.2271 3.56301 28.9298 3.2959 27.6658 3.50709L27.1811 3.61021L7.25446 8.95544C6.01866 9.28798 4.95069 10.0682 4.25821 11.1444C3.56572 12.2207 3.29821 13.516 3.50768 14.7785L3.61081 15.2666L8.95253 35.1866C9.23815 36.253 9.85851 37.1996 10.7223 37.8871C11.5862 38.5745 12.6478 38.9666 13.7511 39.0056V42.443C11.9957 42.4051 10.2938 41.8308 8.87438 40.7972C7.45491 39.7636 6.38581 38.3203 5.81074 36.6612L5.632 36.0769L0.29371 16.1569C-0.271821 14.0496 -0.0146331 11.8061 1.0131 9.88145C2.04084 7.95681 3.76217 6.49516 5.82793 5.79299L6.37104 5.63143L26.2908 0.293076C28.3047 -0.246791 30.4462 -0.0360583 32.3162 0.886006C34.1863 1.80807 35.6573 3.37857 36.4552 5.30487L36.6511 5.82736Z" fill="url(#paint0_linear_2_1631)"/>
<defs>
<linearGradient id="paint0_linear_2_1631" x1="0" y1="0" x2="62.4591" y2="4.02927" gradientUnits="userSpaceOnUse">
<stop stop-color="#7B61FF"/>
<stop offset="1" stop-color="#00DAD9"/>
</linearGradient>
</defs>
</svg>
