<svg width="57" height="47" viewBox="0 0 57 47" fill="none" xmlns="http://www.w3.org/2000/svg">
<path d="M55.2971 8.35749C55.0418 8.10928 54.7379 7.91245 54.4029 7.77845C54.068 7.64445 53.7087 7.57594 53.3461 7.57692H51.3982V3.15385C51.3974 2.45024 51.1069 1.77569 50.5906 1.27817C50.0742 0.780645 49.3741 0.50079 48.6438 0.5H9.00609C6.85634 0.500029 4.79464 1.32285 3.27453 2.78745C1.75442 4.25204 0.900421 6.23846 0.900391 8.30972V38.6903C0.900421 40.7615 1.75442 42.748 3.27453 44.2126C4.79464 45.6772 6.85634 46.5 9.00609 46.5H53.2376C53.9662 46.4986 54.6646 46.2198 55.1806 45.7242C55.6966 45.2286 55.9883 44.5566 55.992 43.8547L56.1004 10.2398C56.1026 9.89044 56.0328 9.5441 55.8949 9.22095C55.757 8.8978 55.5538 8.60429 55.2971 8.35749ZM52.3224 42.9615H9.00609C7.83035 42.9615 6.70277 42.5115 5.87139 41.7105C5.04002 40.9095 4.57296 39.8231 4.57296 38.6903V8.30972C4.57296 7.17691 5.04002 6.0905 5.87139 5.28948C6.70277 4.48847 7.83035 4.03846 9.00609 4.03846H47.7256V7.57692H9.16367V11.1154H52.425L52.3224 42.9615Z" fill="url(#paint0_linear_2_1627)"/>
<path d="M44.0531 24.3846H47.7256V27.9231H44.0531V24.3846Z" fill="url(#paint1_linear_2_1627)"/>
<defs>
<linearGradient id="paint0_linear_2_1627" x1="0.900391" y1="0.5" x2="63.4726" y2="5.34388" gradientUnits="userSpaceOnUse">
<stop stop-color="#7B61FF"/>
<stop offset="1" stop-color="#00DAD9"/>
</linearGradient>
<linearGradient id="paint1_linear_2_1627" x1="0.900391" y1="0.5" x2="63.4726" y2="5.34388" gradientUnits="userSpaceOnUse">
<stop stop-color="#7B61FF"/>
<stop offset="1" stop-color="#00DAD9"/>
</linearGradient>
</defs>
</svg>
