<svg width="33" height="33" viewBox="0 0 33 33" fill="none" xmlns="http://www.w3.org/2000/svg">
<g clip-path="url(#clip0_2_1166)">
<path d="M26.8896 27.5952L19.5563 20.2619M22.0008 14.1508C22.0008 15.2743 21.7795 16.3868 21.3495 17.4248C20.9196 18.4628 20.2894 19.406 19.4949 20.2005C18.7004 20.9949 17.7573 21.6251 16.7193 22.0551C15.6813 22.485 14.5687 22.7063 13.4452 22.7063C12.3217 22.7063 11.2091 22.485 10.1711 22.0551C9.13313 21.6251 8.18997 20.9949 7.39551 20.2005C6.60106 19.406 5.97086 18.4628 5.5409 17.4248C5.11094 16.3868 4.88965 15.2743 4.88965 14.1508C4.88965 11.8817 5.79103 9.70556 7.39551 8.10108C8.99999 6.4966 11.1761 5.59521 13.4452 5.59521C15.7143 5.59521 17.8904 6.4966 19.4949 8.10108C21.0994 9.70556 22.0008 11.8817 22.0008 14.1508Z" stroke="#7B61FF" stroke-width="2" stroke-linecap="round" stroke-linejoin="round"/>
</g>
<defs>
<clipPath id="clip0_2_1166">
<rect width="33" height="33" fill="white"/>
</clipPath>
</defs>
</svg>
