<svg width="46" height="46" viewBox="0 0 46 46" fill="none" xmlns="http://www.w3.org/2000/svg">
<g clip-path="url(#clip0_2_1244)">
<circle cx="21.6981" cy="22.566" r="18.2264" fill="white"/>
<path d="M26.1088 18.1332C25.1895 18.1332 24.422 18.8405 24.4278 19.6825C24.4364 20.5444 25.1809 21.2604 26.0801 21.2661C26.9851 21.2747 27.7726 20.5616 27.7755 19.7283C27.7783 18.8548 27.0252 18.136 26.1059 18.1332H26.1088Z" fill="#7B61FF"/>
<path d="M30.593 18.0899C30.0919 18.1959 29.7941 18.614 29.7941 19.2583C29.7568 19.5733 29.8972 19.8712 30.1119 20.1346C30.3811 20.464 30.7391 20.6129 31.1572 20.527C31.5581 20.4439 31.7901 20.1604 31.9046 19.7767C32.0077 19.433 31.9648 19.1008 31.8101 18.7801C31.5724 18.2789 31.0598 17.9926 30.5902 18.0899H30.593Z" fill="#7B61FF"/>
<path d="M23.3623 8.99762e-06C6.28301 -0.00858217 0.00286768 6.13411 3.95864e-06 22.864C-0.00572349 39.737 6.20283 46 22.9356 46C39.5938 46 45.9885 39.7485 46.0029 23.4482C46.0172 6.39757 39.8487 0.00860017 23.3623 8.99762e-06ZM37.5749 27.4946C37.363 28.3108 36.9392 28.9895 36.2834 29.5221C35.9283 29.8114 35.5302 29.9889 35.0778 30.0376C34.1814 30.1321 33.5543 29.3245 33.8578 28.4769C33.9695 28.1705 34.1757 27.9185 34.3332 27.6378C34.5193 27.3028 34.5623 27.088 34.4993 26.584C34.2272 25.7506 33.1304 26.1515 32.9443 26.246C32.6923 26.3778 32.5262 26.5811 32.446 26.8617C32.2914 27.4116 32.3343 27.9557 32.4288 28.5084C32.615 29.5823 32.7467 30.6676 32.5691 31.753C32.2942 33.4254 31.186 34.3991 29.6739 34.9346C28.6573 35.178 26.6842 35.4271 26.4207 34.0583C26.3434 33.1734 26.8388 32.804 27.4688 32.5777C27.8469 32.4431 28.2392 32.34 28.5971 32.1482C28.832 32.0193 29.0611 31.8847 29.2157 31.6556C29.4076 31.3721 29.3016 31.0628 28.978 30.954C28.4912 30.7908 28.0416 30.911 27.6235 31.1716C26.5696 31.8303 25.9597 32.5348 25.0318 33.3595C24.6194 33.7261 23.9808 34.3361 23.5169 34.6425C22.5976 35.2525 21.6154 35.662 20.5329 35.8052C16.8702 35.914 16.0254 34.6024 13.3163 35.1236C13.0271 35.178 12.735 35.1035 12.4515 35.0062C11.9561 34.8372 11.6554 34.4993 11.5981 33.9781C11.5494 33.5399 11.8329 33.1161 12.3197 32.8899C12.8123 32.6608 13.5282 32.5176 14.0638 32.4832C15.6044 32.3859 17.4945 33.2364 20.006 33.0445C20.6904 32.9328 21.4693 32.0794 21.8817 31.5096C22.0593 31.2633 22.2855 30.3268 21.4207 30.1608C21.0741 30.0949 20.7906 30.3526 20.5243 30.5559C19.9201 31.017 19.4647 31.6041 18.7116 31.7959C17.2396 32.1711 15.9481 31.8418 14.562 31.2117C13.6571 30.8022 11.7728 29.356 11.1113 28.9494C10.3065 28.454 9.75098 28.0158 8.78018 28.1103C8.33917 28.1533 7.41132 28.2936 7.03617 28.0359C6.40615 27.6063 6.30592 27.0708 6.70971 26.4265C7.03904 25.9024 7.52301 25.616 8.10434 25.4986C9.67653 25.1807 11.1685 25.3669 12.5403 26.2546C13.9549 27.1682 14.2728 27.4431 15.7362 28.2707C16.0454 28.4454 16.18 28.5456 16.5208 28.643C16.8931 28.7518 17.1079 28.4941 17.0878 28.2936C17.0592 27.9929 16.8015 27.8383 16.5953 27.6407C16.0769 27.1453 15.5157 26.6641 14.9658 26.1888C14.5248 25.8079 14.1439 25.3583 13.8547 24.8514C13.4967 24.2243 13.365 23.6744 13.259 23.0473C13.1846 22.6062 12.798 21.3204 12.2338 20.3668C11.8386 19.6967 10.6645 19.6967 10.3438 19.2586C10.0431 18.9922 10.0202 18.3508 10.298 17.967C10.5986 17.5518 11.8444 17.3885 12.3484 17.526C12.9068 17.6778 13.007 17.7007 13.5168 17.9441C14.6365 18.4796 15.6674 19.4046 16.0827 20.5558C16.2745 21.0856 16.4836 21.6097 16.6898 22.1337C17.0478 23.0358 17.6921 23.683 18.5398 24.1269C19.2213 24.4849 19.9745 24.3016 20.4527 23.7002C21.1715 22.801 21.0341 22.3714 20.593 21.5094C20.2408 20.9367 19.6938 20.5358 19.2585 20.0346C18.786 19.4905 18.2963 18.9636 17.8525 18.3994C17.0764 17.4115 16.6955 16.1571 16.8387 14.9086C16.9074 14.3072 17.0907 13.7001 17.4687 13.2104C18.7116 11.5981 20.4269 10.7304 22.3943 10.3266C22.9585 10.2092 23.5312 10.1805 23.9064 10.1949C27.3457 10.1605 30.0004 11.4578 32.1396 13.8175C33.3423 15.1462 34.021 16.7299 34.1785 18.5569C34.3046 20.0203 34.0296 20.9252 33.2478 22.0879C33.1877 22.1767 32.8698 22.5747 32.9386 22.695C33.0044 22.8067 33.1362 22.7695 33.245 22.7781C34.1728 22.8497 36.0171 23.3651 36.7072 23.998C37.7553 24.9574 37.9186 26.1716 37.5749 27.4946Z" fill="#7B61FF"/>
</g>
<defs>
<clipPath id="clip0_2_1244">
<rect width="46" height="46" fill="white"/>
</clipPath>
</defs>
</svg>
