<svg width="19" height="19" viewBox="0 0 19 19" fill="none" xmlns="http://www.w3.org/2000/svg">
<path fill-rule="evenodd" clip-rule="evenodd" d="M0.44894 0.468109C0.736482 0.180653 1.12642 0.0191694 1.53301 0.0191694C1.93959 0.0191694 2.32953 0.180653 2.61707 0.468109L9.19967 7.05071L15.7823 0.468109C15.9237 0.32166 16.0929 0.204847 16.28 0.124487C16.4671 0.0441261 16.6683 0.00182708 16.8719 5.78941e-05C17.0755 -0.00171129 17.2774 0.0370843 17.4658 0.114182C17.6542 0.191279 17.8254 0.305134 17.9694 0.449103C18.1134 0.593071 18.2272 0.764271 18.3043 0.952712C18.3814 1.14115 18.4202 1.34306 18.4185 1.54666C18.4167 1.75025 18.3744 1.95146 18.294 2.13853C18.2137 2.3256 18.0969 2.4948 17.9504 2.63624L11.3678 9.21884L17.9504 15.8014C18.2297 16.0906 18.3843 16.478 18.3808 16.88C18.3773 17.282 18.216 17.6666 17.9317 17.9509C17.6474 18.2352 17.2629 18.3964 16.8608 18.3999C16.4588 18.4034 16.0715 18.2489 15.7823 17.9696L9.19967 11.387L2.61707 17.9696C2.32788 18.2489 1.94056 18.4034 1.53852 18.3999C1.13649 18.3964 0.75191 18.2352 0.467617 17.9509C0.183325 17.6666 0.0220655 17.282 0.018572 16.88C0.0150784 16.478 0.16963 16.0906 0.44894 15.8014L7.03154 9.21884L0.44894 2.63624C0.161484 2.3487 0 1.95876 0 1.55218C0 1.14559 0.161484 0.755651 0.44894 0.468109Z" fill="#7B61FF"/>
</svg>
